<?xml version="1.0" encoding="UTF-8"?>
<!DOCTYPE svg PUBLIC "-//W3C//DTD SVG 1.1//EN" "http://www.w3.org/Graphics/SVG/1.1/DTD/svg11.dtd">
<svg xmlns="http://www.w3.org/2000/svg" version="1.1" width="512px" height="512px" style="shape-rendering:geometricPrecision; text-rendering:geometricPrecision; image-rendering:optimizeQuality; fill-rule:evenodd; clip-rule:evenodd" xmlns:xlink="http://www.w3.org/1999/xlink">
<g><path style="opacity:0.97" fill="#fefffe" d="M 511.5,225.5 C 511.5,245.5 511.5,265.5 511.5,285.5C 507.55,296.107 499.884,301.774 488.5,302.5C 488.667,320.503 488.5,338.503 488,356.5C 483.5,377.667 470.667,390.5 449.5,395C 312.5,395.667 175.5,395.667 38.5,395C 17.8739,390.871 4.87391,378.704 -0.5,358.5C -0.5,289.833 -0.5,221.167 -0.5,152.5C 4.87391,132.296 17.8739,120.129 38.5,116C 175.5,115.333 312.5,115.333 449.5,116C 470.667,120.5 483.5,133.333 488,154.5C 488.5,172.497 488.667,190.497 488.5,208.5C 499.884,209.226 507.55,214.893 511.5,225.5 Z M 42.5,139.5 C 176.834,139.333 311.167,139.5 445.5,140C 455.667,142.167 461.833,148.333 464,158.5C 464.667,223.167 464.667,287.833 464,352.5C 461.833,362.667 455.667,368.833 445.5,371C 311.167,371.667 176.833,371.667 42.5,371C 32.7518,368.918 26.5852,363.084 24,353.5C 23.3333,288.167 23.3333,222.833 24,157.5C 26.7632,147.902 32.9299,141.902 42.5,139.5 Z"/></g>
<g><path style="opacity:0.988" fill="#fefffe" d="M 45.5,161.5 C 115.5,161.5 185.5,161.5 255.5,161.5C 255.5,224.167 255.5,286.833 255.5,349.5C 185.5,349.5 115.5,349.5 45.5,349.5C 45.5,286.833 45.5,224.167 45.5,161.5 Z"/></g>
</svg>
