<!DOCTYPE svg PUBLIC "-//W3C//DTD SVG 1.1//EN" "http://www.w3.org/Graphics/SVG/1.1/DTD/svg11.dtd">
<!-- Uploaded to: SVG Repo, www.svgrepo.com, Transformed by: SVG Repo Mixer Tools -->
<svg fill="#ffffff" width="800px" height="800px" viewBox="0 0 512 512" xmlns="http://www.w3.org/2000/svg" stroke="#ffffff">
<g id="SVGRepo_bgCarrier" stroke-width="0"/>
<g id="SVGRepo_tracerCarrier" stroke-linecap="round" stroke-linejoin="round"/>
<g id="SVGRepo_iconCarrier">
<title>ionicons-v5-l</title>
<path d="M472,432H424a24,24,0,0,1-24-24V104a24,24,0,0,1,24-24h48a24,24,0,0,1,24,24V408A24,24,0,0,1,472,432Z"/>
<path d="M344,432H296a24,24,0,0,1-24-24V184a24,24,0,0,1,24-24h48a24,24,0,0,1,24,24V408A24,24,0,0,1,344,432Z"/>
<path d="M216,432H168a24,24,0,0,1-24-24V248a24,24,0,0,1,24-24h48a24,24,0,0,1,24,24V408A24,24,0,0,1,216,432Z"/>
<path d="M88,432H40a24,24,0,0,1-24-24V312a24,24,0,0,1,24-24H88a24,24,0,0,1,24,24v96A24,24,0,0,1,88,432Z"/>
</g>
</svg>