<?xml version="1.0" encoding="UTF-8"?>
<!DOCTYPE svg PUBLIC "-//W3C//DTD SVG 1.1//EN" "http://www.w3.org/Graphics/SVG/1.1/DTD/svg11.dtd">
<svg xmlns="http://www.w3.org/2000/svg" version="1.1" width="512px" height="512px" style="shape-rendering:geometricPrecision; text-rendering:geometricPrecision; image-rendering:optimizeQuality; fill-rule:evenodd; clip-rule:evenodd" xmlns:xlink="http://www.w3.org/1999/xlink">
<g><path style="opacity:0.976" fill="#fefffe" d="M 511.5,233.5 C 511.5,249.833 511.5,266.167 511.5,282.5C 505.298,348.055 480.631,405.555 437.5,455C 422.274,462.704 409.774,459.537 400,445.5C 395.815,437.655 395.482,429.655 399,421.5C 460.721,345.183 475.387,260.516 443,167.5C 431.282,139.042 415.282,113.375 395,90.5C 388.688,73.2871 393.855,60.7871 410.5,53C 419.198,50.2618 427.198,51.5952 434.5,57C 479.126,107.431 504.792,166.264 511.5,233.5 Z"/></g>
<g><path style="opacity:0.989" fill="#fefffe" d="M -0.5,311.5 C -0.5,275.833 -0.5,240.167 -0.5,204.5C 2.31649,196.852 7.64982,191.685 15.5,189C 40.5,188.667 65.5,188.333 90.5,188C 132.5,153 174.5,118 216.5,83C 231.474,73.776 243.974,76.276 254,90.5C 254.92,93.1013 255.587,95.7679 256,98.5C 256.667,204.833 256.667,311.167 256,417.5C 252.377,433.757 242.211,440.59 225.5,438C 222.554,437.194 219.888,435.861 217.5,434C 175.208,399.377 133.208,364.377 91.5,329C 67.5,328.667 43.5,328.333 19.5,328C 9.60526,326.261 2.9386,320.761 -0.5,311.5 Z"/></g>
<g><path style="opacity:0.972" fill="#fefffe" d="M 333.5,131.5 C 340.759,130.593 347.426,132.093 353.5,136C 387.189,174.731 402.355,219.898 399,271.5C 396.298,310.635 382.465,345.135 357.5,375C 340.081,383.082 326.915,378.582 318,361.5C 316,355.5 316,349.5 318,343.5C 353.123,294.456 356.79,243.122 329,189.5C 325.054,183.221 320.721,177.221 316,171.5C 309.36,157.415 312.194,145.582 324.5,136C 327.437,134.199 330.437,132.699 333.5,131.5 Z"/></g>
</svg>
