<?xml version="1.0" encoding="UTF-8"?>
<!DOCTYPE svg PUBLIC "-//W3C//DTD SVG 1.1//EN" "http://www.w3.org/Graphics/SVG/1.1/DTD/svg11.dtd">
<svg xmlns="http://www.w3.org/2000/svg" version="1.1" width="512px" height="512px" style="shape-rendering:geometricPrecision; text-rendering:geometricPrecision; image-rendering:optimizeQuality; fill-rule:evenodd; clip-rule:evenodd" xmlns:xlink="http://www.w3.org/1999/xlink">
<g><path style="opacity:0.979" fill="#fefffe" d="M 511.5,176.5 C 511.5,181.5 511.5,186.5 511.5,191.5C 504.701,209.572 491.701,216.739 472.5,213C 468.888,211.861 465.554,210.194 462.5,208C 398.046,144.395 320.38,115.728 229.5,122C 159.094,128.875 99.0941,157.209 49.5,207C 33.5059,217.431 18.6726,215.931 5,202.5C 2.6738,198.983 0.840466,195.317 -0.5,191.5C -0.5,186.167 -0.5,180.833 -0.5,175.5C 1.37573,170.762 4.0424,166.429 7.5,162.5C 86.3351,86.4922 180.668,52.9922 290.5,62C 374.927,70.9683 446.76,105.468 506,165.5C 508.412,168.99 510.245,172.657 511.5,176.5 Z"/></g>
<g><path style="opacity:0.978" fill="#fefffe" d="M 244.5,160.5 C 318.532,158.79 381.698,183.79 434,235.5C 443.844,251.206 442.344,265.706 429.5,279C 417.381,287.161 405.048,287.494 392.5,280C 342.472,230.774 282.805,212.774 213.5,226C 177.071,234.875 145.738,252.541 119.5,279C 104.251,288.267 90.0838,286.767 77,274.5C 68.7382,262.077 68.4049,249.411 76,236.5C 122.456,189.84 178.623,164.506 244.5,160.5 Z"/></g>
<g><path style="opacity:0.977" fill="#fefffe" d="M 240.5,256.5 C 288.327,253.05 329.494,267.716 364,300.5C 371.649,309.093 374.316,319.093 372,330.5C 365.491,347.844 352.991,355.011 334.5,352C 331.382,350.941 328.382,349.608 325.5,348C 295.258,317.817 259.925,309.817 219.5,324C 206.503,329.667 195.169,337.667 185.5,348C 169.007,356.272 154.841,353.439 143,339.5C 136.451,326.741 137.118,314.408 145,302.5C 171.599,276.284 203.432,260.95 240.5,256.5 Z"/></g>
<g><path style="opacity:0.974" fill="#fefffe" d="M 247.5,361.5 C 276.216,359.592 293.716,372.592 300,400.5C 301.268,426.9 289.101,443.4 263.5,450C 235.086,452.565 217.586,440.065 211,412.5C 209.517,385.514 221.683,368.514 247.5,361.5 Z"/></g>
</svg>
