<?xml version="1.0" encoding="UTF-8"?>
<svg version="1.1" xmlns="http://www.w3.org/2000/svg" width="225" height="225">
<path d="M0 0 C74.25 0 148.5 0 225 0 C225 74.25 225 148.5 225 225 C150.75 225 76.5 225 0 225 C0 150.75 0 76.5 0 0 Z " fill="#000000" transform="translate(0,0)"/>
<path d="M0 0 C35.15824151 -2.59750591 35.15824151 -2.59750591 41.625 2.91796875 C44.1289065 5.97563553 45.75210479 9.362838 47.18603516 13.02978516 C48.39239339 15.94979443 50.17147092 18.37331512 52 20.9375 C52.62261719 21.88367188 53.24523437 22.82984375 53.88671875 23.8046875 C56.49449594 27.74768517 59.14576989 31.65920959 61.8125 35.5625 C62.28107422 36.25400146 62.74964844 36.94550293 63.23242188 37.65795898 C63.90047852 38.63357788 63.90047852 38.63357788 64.58203125 39.62890625 C64.97624268 40.20713135 65.3704541 40.78535645 65.77661133 41.38110352 C67.06038364 43.079905 68.46233931 44.53024686 70 46 C74.62120133 40.96365529 79.14437033 35.88291427 83.4375 30.5625 C87.28954619 25.79936114 91.35510982 21.2860274 95.50390625 16.78125 C98.83741066 13.06692271 101.97062274 9.2072805 105.08984375 5.3125 C105.72019531 4.549375 106.35054688 3.78625 107 3 C107.46148437 2.40574219 107.92296875 1.81148437 108.3984375 1.19921875 C110.79356503 -0.59420601 112.74793882 -0.29124922 115.6875 -0.1875 C116.68136719 -0.16042969 117.67523438 -0.13335937 118.69921875 -0.10546875 C119.45847656 -0.07066406 120.21773438 -0.03585938 121 0 C116.92776449 5.77727721 112.36760855 10.94962786 107.578125 16.140625 C104.31667203 19.75787284 101.27295542 23.52735752 98.21484375 27.31640625 C95.34515753 30.79343346 92.31435682 34.10692679 89.27734375 37.4375 C86.01272019 41.11090147 82.92978016 44.92316537 79.84765625 48.75 C78 51 78 51 76 53 C76.3003861 57.08252024 77.78082557 59.43997248 80.25 62.625 C84.08337125 67.72016071 87.72614039 72.91551974 91.3125 78.1875 C91.8708252 79.00661865 92.42915039 79.8257373 93.00439453 80.66967773 C94.13006703 82.32121538 95.2553952 83.97298777 96.38037109 85.625 C98.78582603 89.15232373 101.20441661 92.67054759 103.625 96.1875 C104.5156381 97.48176182 105.40626313 98.77603263 106.296875 100.0703125 C106.95719727 101.0298584 106.95719727 101.0298584 107.63085938 102.00878906 C109.07314332 104.10637605 110.51333551 106.20538762 111.953125 108.3046875 C112.44216309 109.01729736 112.93120117 109.72990723 113.43505859 110.46411133 C114.3603775 111.81255418 115.28522233 113.16132254 116.20947266 114.51049805 C116.63276855 115.12707275 117.05606445 115.74364746 117.4921875 116.37890625 C117.90178711 116.97590332 118.31138672 117.57290039 118.73339844 118.18798828 C120.06616628 120.09465809 121.44283971 121.96529978 122.8203125 123.83984375 C125 127 125 127 125 129 C93.32327165 131.66545727 93.32327165 131.66545727 85.27929688 127.63769531 C81.25975783 124.02252431 79.21974491 119.43090745 77.15771484 114.51123047 C75.10573221 110.06021963 72.15700219 106.22178126 69.3125 102.25 C68.22764104 100.66818902 67.14681204 99.08360554 66.0703125 97.49609375 C62.07799945 91.642449 58.04287168 85.81881015 54 80 C45.8857715 88.02666489 38.33529844 96.46434464 31.1796875 105.3515625 C28.32064896 108.82544804 25.30428238 112.13449198 22.2421875 115.4296875 C19.91654212 118.00936666 19.91654212 118.00936666 17.8203125 121.0703125 C12.34307217 128.69166826 12.34307217 128.69166826 7.98828125 129.69140625 C5.23661986 129.687883 2.70272242 129.50012994 0 129 C2.04046726 125.36822493 4.28618385 122.41731552 7.125 119.375 C10.35177993 115.85629813 13.44275616 112.28066331 16.4375 108.5625 C19.51336588 104.75912497 22.68753166 101.09917348 26 97.5 C30.12150398 93.02121394 33.99429637 88.39521217 37.81640625 83.66015625 C41.09379303 79.66749006 44.53959359 75.83366613 48 72 C43.36080395 64.58461324 38.52923445 57.34308825 33.5 50.1875 C23.54650768 35.95025567 13.7383381 21.61496008 4.0625 7.1875 C3.43335693 6.25357422 3.43335693 6.25357422 2.79150391 5.30078125 C0 1.11774216 0 1.11774216 0 0 Z " fill="#F8F8F8" transform="translate(50,48)"/>
<path d="M0 0 C5.427551 -1.26877816 10.68074982 -2.08743722 16 0 C21.33558168 4.5402754 24.69083323 11.11024145 28.22167969 17.06542969 C31.17168301 21.93350217 34.44622283 26.57320647 37.6875 31.25 C38.95502133 33.10938579 40.22068623 34.97003862 41.484375 36.83203125 C48.16583722 46.65866083 54.9093206 56.44085296 61.70410156 66.18945312 C67.9010603 75.08112757 74.07364075 83.98842584 80.1875 92.9375 C80.79883789 93.83033691 81.41017578 94.72317383 82.04003906 95.64306641 C85.4819103 100.69274211 88.7974481 105.79509926 92 111 C86.28572168 112.17022945 80.59817868 113.0771578 75 111 C69.85522771 106.65749023 66.73787776 100.34106468 63.47460938 94.55224609 C61.31818211 90.8199132 58.86152022 87.32954177 56.375 83.8125 C55.47474445 82.50776298 54.57629807 81.20177576 53.6796875 79.89453125 C53.23850586 79.25338379 52.79732422 78.61223633 52.34277344 77.95166016 C50.52137503 75.30434037 48.70094917 72.65635259 46.88061523 70.00830078 C45.95836256 68.66675339 45.03599883 67.32528233 44.11352539 65.98388672 C41.88232419 62.73929087 39.65239463 59.49384001 37.42578125 56.24609375 C32.70314262 49.36135823 27.95683244 42.4938437 23.18432617 35.64355469 C20.45642784 31.72779974 17.731952 27.8096743 15.00878906 23.890625 C13.67824228 21.97598306 12.34687272 20.06191261 11.01464844 18.1484375 C9.17156193 15.49812577 7.33485831 12.84351246 5.5 10.1875 C4.94199707 9.38723389 4.38399414 8.58696777 3.80908203 7.76245117 C3.30489746 7.03002197 2.80071289 6.29759277 2.28125 5.54296875 C1.83845703 4.90383545 1.39566406 4.26470215 0.93945312 3.60620117 C0 2 0 2 0 0 Z " fill="#030303" transform="translate(67,57)"/>
</svg>
